<svg xmlns="http://www.w3.org/2000/svg" viewBox="0 0 1920 3072" role="img" aria-hidden="true">
  <defs>
    <linearGradient id="lightBase" x1="0" y1="0" x2="1" y2="1">
      <stop offset="0%" stop-color="#eef5e8"/>
      <stop offset="42%" stop-color="#e8f0e2"/>
      <stop offset="100%" stop-color="#dfead6"/>
    </linearGradient>
    <radialGradient id="lightGlowTL" cx="12%" cy="8%" r="55%">
      <stop offset="0%" stop-color="#d4e8c8" stop-opacity="0.55"/>
      <stop offset="100%" stop-color="#dfead6" stop-opacity="0"/>
    </radialGradient>
    <radialGradient id="lightGlowBR" cx="88%" cy="92%" r="48%">
      <stop offset="0%" stop-color="#c8ddbc" stop-opacity="0.4"/>
      <stop offset="100%" stop-color="#dfead6" stop-opacity="0"/>
    </radialGradient>
    <linearGradient id="lightLineA" x1="0" y1="0" x2="0" y2="1">
      <stop offset="0%" stop-color="#6d8f64" stop-opacity="0.34"/>
      <stop offset="100%" stop-color="#5a7d52" stop-opacity="0.22"/>
    </linearGradient>
    <linearGradient id="lightLineB" x1="0" y1="0" x2="0" y2="1">
      <stop offset="0%" stop-color="#8aa882" stop-opacity="0.2"/>
      <stop offset="100%" stop-color="#7a9872" stop-opacity="0.12"/>
    </linearGradient>
  </defs>

  <rect width="1920" height="3072" fill="url(#lightBase)"/>
  <rect width="1920" height="3072" fill="url(#lightGlowTL)"/>
  <rect width="1920" height="3072" fill="url(#lightGlowBR)"/>

  <!-- Band 1: upright -->
  <g fill="none" stroke="url(#lightLineA)" stroke-width="1.25" stroke-linecap="round" stroke-linejoin="round">
    <path d="M-120 190C140 102 278 286 498 230S856 20 1082 108s302 306 546 276 338-182 534-142"/>
    <path d="M-116 240C150 162 292 330 512 282S870 72 1094 160s302 304 546 274 338-184 538-144"/>
    <path d="M-108 292C164 224 304 386 526 334S882 124 1108 212s300 306 548 276 342-190 542-148"/>
    <path d="M-98 346C176 286 320 444 544 390s358-214 586-126 302 312 554 282 350-198 552-154"/>
    <path d="M-88 404C190 350 338 500 564 450s362-224 592-136 306 314 560 286 354-204 560-158"/>
    <path d="M-72 468C208 420 356 566 588 518s368-236 600-150 312 322 570 298 364-214 574-166"/>
    <path d="M-54 538C226 496 380 636 614 592s374-246 610-164 320 332 580 310 372-224 588-174"/>
    <path d="M-34 612C248 574 404 712 642 672s382-260 620-178 330 342 592 324 384-236 604-184"/>
    <path d="M-10 694C274 662 434 794 674 760s388-272 634-192 340 354 606 338 396-248 622-194"/>
    <path d="M16 782C306 754 468 882 712 852s400-286 652-208 352 368 622 354 410-262 640-206"/>
    <path d="M44 878C336 854 502 976 752 950s410-298 670-224 366 382 640 370 426-278 660-220"/>
    <path d="M76 982C372 962 546 1080 802 1058s424-314 692-242 382 398 662 390 444-296 684-236"/>
  </g>
  <g fill="none" stroke="url(#lightLineB)" stroke-width="0.85" stroke-linecap="round">
    <path d="M-84 154C188 88 304 214 526 172s340-190 560-106 296 286 540 254 324-164 520-122"/>
    <path d="M-80 872C220 838 418 1012 674 976s420-296 686-220 360 384 630 366 416-268 654-214"/>
  </g>

  <!-- Band 2: flip vertical (seamless variety) -->
  <g transform="translate(0 2048) scale(1 -1) translate(0 -1024)">
    <g fill="none" stroke="url(#lightLineA)" stroke-width="1.25" stroke-linecap="round" stroke-linejoin="round" opacity="0.92">
      <path d="M-120 190C140 102 278 286 498 230S856 20 1082 108s302 306 546 276 338-182 534-142"/>
      <path d="M-116 240C150 162 292 330 512 282S870 72 1094 160s302 304 546 274 338-184 538-144"/>
      <path d="M-108 292C164 224 304 386 526 334S882 124 1108 212s300 306 548 276 342-190 542-148"/>
      <path d="M-98 346C176 286 320 444 544 390s358-214 586-126 302 312 554 282 350-198 552-154"/>
      <path d="M-88 404C190 350 338 500 564 450s362-224 592-136 306 314 560 286 354-204 560-158"/>
      <path d="M-72 468C208 420 356 566 588 518s368-236 600-150 312 322 570 298 364-214 574-166"/>
      <path d="M-54 538C226 496 380 636 614 592s374-246 610-164 320 332 580 310 372-224 588-174"/>
      <path d="M-34 612C248 574 404 712 642 672s382-260 620-178 330 342 592 324 384-236 604-184"/>
      <path d="M-10 694C274 662 434 794 674 760s388-272 634-192 340 354 606 338 396-248 622-194"/>
      <path d="M16 782C306 754 468 882 712 852s400-286 652-208 352 368 622 354 410-262 640-206"/>
      <path d="M44 878C336 854 502 976 752 950s410-298 670-224 366 382 640 370 426-278 660-220"/>
      <path d="M76 982C372 962 546 1080 802 1058s424-314 692-242 382 398 662 390 444-296 684-236"/>
    </g>
    <g fill="none" stroke="url(#lightLineB)" stroke-width="0.85" stroke-linecap="round" opacity="0.88">
      <path d="M-84 154C188 88 304 214 526 172s340-190 560-106 296 286 540 254 324-164 520-122"/>
      <path d="M-80 872C220 838 418 1012 674 976s420-296 686-220 360 384 630 366 416-268 654-214"/>
    </g>
  </g>

  <!-- Band 3: flip horizontal -->
  <g transform="translate(1920 3072) scale(-1 1) translate(0 -2048)">
    <g fill="none" stroke="url(#lightLineA)" stroke-width="1.25" stroke-linecap="round" stroke-linejoin="round" opacity="0.88">
      <path d="M-120 190C140 102 278 286 498 230S856 20 1082 108s302 306 546 276 338-182 534-142"/>
      <path d="M-116 240C150 162 292 330 512 282S870 72 1094 160s302 304 546 274 338-184 538-144"/>
      <path d="M-108 292C164 224 304 386 526 334S882 124 1108 212s300 306 548 276 342-190 542-148"/>
      <path d="M-98 346C176 286 320 444 544 390s358-214 586-126 302 312 554 282 350-198 552-154"/>
      <path d="M-88 404C190 350 338 500 564 450s362-224 592-136 306 314 560 286 354-204 560-158"/>
      <path d="M-72 468C208 420 356 566 588 518s368-236 600-150 312 322 570 298 364-214 574-166"/>
      <path d="M-54 538C226 496 380 636 614 592s374-246 610-164 320 332 580 310 372-224 588-174"/>
      <path d="M-34 612C248 574 404 712 642 672s382-260 620-178 330 342 592 324 384-236 604-184"/>
      <path d="M-10 694C274 662 434 794 674 760s388-272 634-192 340 354 606 338 396-248 622-194"/>
      <path d="M16 782C306 754 468 882 712 852s400-286 652-208 352 368 622 354 410-262 640-206"/>
      <path d="M44 878C336 854 502 976 752 950s410-298 670-224 366 382 640 370 426-278 660-220"/>
      <path d="M76 982C372 962 546 1080 802 1058s424-314 692-242 382 398 662 390 444-296 684-236"/>
    </g>
    <g fill="none" stroke="url(#lightLineB)" stroke-width="0.85" stroke-linecap="round" opacity="0.85">
      <path d="M-84 154C188 88 304 214 526 172s340-190 560-106 296 286 540 254 324-164 520-122"/>
      <path d="M-80 872C220 838 418 1012 674 976s420-296 686-220 360 384 630 366 416-268 654-214"/>
    </g>
  </g>
</svg>
